# xmcd
#
# Track frame offsets:
# 150
# 18775
# 33970
# 49470
# 66745
# 82960
# 97380
# 111835
# 126275
# 145975
#
# Disc length: 2147 seconds
#
#
# Revision: 1
# Processed by: cddbd v1.5.2PL0 Copyright (c) Steve Scherf et al.
# Submitted via: audiograbber 1.83.01 
#
DISCID=9208610a
DTITLE=Varios - Canta Como Pepe Y Pedrito (Multi Karaoke 8)
DYEAR=2000
DGENRE=Latin
TTITLE0=Pepe Aguilar - Por Mujeres Como Tu
TTITLE1=Pepe Aguilar - Recuerdame Bonito
TTITLE2=Pepe Aguilar - Directo Al Corazon
TTITLE3=Pepe Aguilar - Perdoname
TTITLE4=Pepe Aguilar - Llamarada
TTITLE5=Pedro Fernandez - Que Va A Sentir Tu Marido
TTITLE6=Pedro Fernandez - El Aventurero
TTITLE7=Pedro Fernandez - Me Quede Con Las Ganas
TTITLE8=Pedro Fernandez - Los Hombres No Deben Llorar
TTITLE9=Pedro Fernandez - Fueron Tres Años
EXTD=
EXTT0=
EXTT1=
EXTT2=
EXTT3=
EXTT4=
EXTT5=
EXTT6=
EXTT7=
EXTT8=
EXTT9=
PLAYORDER=
